<mxfile host="app.diagrams.net" modified="2024-03-23T13:36:06.348Z" agent="Mozilla/5.0 (Windows NT 10.0; Win64; x64) AppleWebKit/537.36 (KHTML, like Gecko) Chrome/123.0.0.0 Safari/537.36" version="24.0.8" etag="u8q3VTMFx1-B9s80Ntwp" type="github">
  <diagram name="Page-1" id="zPGRw3HBfnQC19OAq6zw">
    <mxGraphModel>
      <root>
        <mxCell id="0" />
        <mxCell id="1" parent="0" />
      </root>
    </mxGraphModel>
  </diagram>
</mxfile>
